<?xml version="1.0" encoding="utf-8"?>
<!-- Generator: Adobe Illustrator 25.0.0, SVG Export Plug-In . SVG Version: 6.00 Build 0)  -->
<svg version="1.1" id="Editable-line" xmlns="http://www.w3.org/2000/svg" xmlns:xlink="http://www.w3.org/1999/xlink" x="0px"
	 y="0px" viewBox="0 0 32 32" style="enable-background:new 0 0 32 32;" xml:space="preserve">
<style type="text/css">
	.st0{fill:none;stroke:#000000;stroke-width:2;stroke-linecap:round;stroke-linejoin:round;stroke-miterlimit:10;}
</style>
<circle id="XMLID_224_" class="st0" cx="16" cy="16" r="3.7"/>
<path id="XMLID_242_" class="st0" d="M26.8,10.8l-0.9-1.6c-0.5-0.9-1.6-1.2-2.5-0.7l-0.5,0.3c-1.8,1.1-4.1-0.3-4.1-2.4V5.9
	c0-1-0.8-1.8-1.8-1.8h-1.8c-1,0-1.8,0.8-1.8,1.8v0.6c0,2.1-2.3,3.4-4.1,2.4L8.7,8.6c-0.9-0.5-2-0.2-2.5,0.7l-0.9,1.6
	c-0.5,0.9-0.2,2,0.7,2.5l0.5,0.3c1.8,1.1,1.8,3.7,0,4.8l-0.5,0.3c-0.9,0.5-1.2,1.6-0.7,2.5l0.9,1.6c0.5,0.9,1.6,1.2,2.5,0.7l0.5-0.3
	c1.8-1.1,4.1,0.3,4.1,2.4v0.6c0,1,0.8,1.8,1.8,1.8h1.8c1,0,1.8-0.8,1.8-1.8v-0.6c0-2.1,2.3-3.4,4.1-2.4l0.5,0.3
	c0.9,0.5,2,0.2,2.5-0.7l0.9-1.6c0.5-0.9,0.2-2-0.7-2.5l-0.5-0.3c-1.8-1.1-1.8-3.7,0-4.8l0.5-0.3C27,12.8,27.3,11.7,26.8,10.8z"/>
</svg>
