<?xml version="1.0" encoding="utf-8"?>
<!-- Generator: Adobe Illustrator 25.0.0, SVG Export Plug-In . SVG Version: 6.00 Build 0)  -->
<svg version="1.1" id="Слой_1" xmlns="http://www.w3.org/2000/svg" xmlns:xlink="http://www.w3.org/1999/xlink" x="0px" y="0px"
	 viewBox="0 0 48 48" style="enable-background:new 0 0 48 48;" xml:space="preserve">
<style type="text/css">
	.st0{fill:#646464;}
</style>
<g>
	<polygon class="st0" points="17.1,28.5 23.2,31.4 23.2,23.7 17.1,20.2 	"/>
	<path class="st0" d="M15.6,19.3l-5.4-3.1v16.2c0,0,0,0,0,0l5.4-3.9V19.3z"/>
	<polygon class="st0" points="30.9,20.2 24.8,23.7 24.8,31.4 30.9,28.5 	"/>
	<path class="st0" d="M32.4,28.6l5.4,3.9c0,0,0,0,0,0V16.2l-5.4,3.1L32.4,28.6z"/>
	<path class="st0" d="M29.8,19l-5.7-2.7c0,0-0.1,0-0.1,0c0,0-0.1,0-0.1,0L18.2,19l5.8,3.3L29.8,19z"/>
	<polygon class="st0" points="23.2,33.1 16.4,29.8 11.4,33.5 23.2,39 	"/>
	<polygon class="st0" points="31.6,29.8 24.8,33.1 24.8,39 36.6,33.5 	"/>
	<polygon class="st0" points="37.2,14.8 24.8,9 24.8,14.9 31.5,18.1 	"/>
	<polygon class="st0" points="16.5,18.1 23.2,14.9 23.2,9 10.8,14.8 	"/>
</g>
</svg>
