<?xml version="1.0" ?><svg id="Layer_1" style="enable-background:new 0 0 512 512;" version="1.1" viewBox="0 0 512 512" xml:space="preserve" xmlns="http://www.w3.org/2000/svg" xmlns:xlink="http://www.w3.org/1999/xlink"><style type="text/css">
	.st0{fill:#F15842;}
	.st1{fill:#FFFFFF;}
</style><g><circle class="st0" cx="256" cy="256" id="XMLID_7_" r="256"/><g><path class="st1" d="M337.1,210.9c-3.2,0-5.8,2.6-5.8,5.8v57.2c0,41.5-33.8,75.3-75.3,75.3    c-41.5,0-75.3-33.8-75.3-75.3v-57.2c0-3.2-2.6-5.8-5.8-5.8c-3.2,0-5.8,2.6-5.8,5.8v57.2c0,43,31.4,78.8,72.5,85.7v36.5h-22    c-6,0-10.9,4.9-10.9,10.9v9h94.5v-9c0-6-4.9-10.9-10.9-10.9h-22v-36.5c41.1-6.9,72.5-42.7,72.5-85.7v-57.2    C342.9,213.5,340.3,210.9,337.1,210.9z" id="XMLID_46_"/><path class="st1" d="M190.1,241.3h2.3v32.7c0,35.1,28.5,63.6,63.6,63.6h0c35.1,0,63.6-28.5,63.6-63.6v-32.7h2.3    c4.5,0,8.2-3.7,8.2-8.2c0-4.5-3.7-8.2-8.2-8.2h-2.3l0,0H192.4l0,0h-2.3c-4.5,0-8.2,3.7-8.2,8.2    C181.9,237.6,185.6,241.3,190.1,241.3z" id="XMLID_45_"/><path class="st1" d="M319.6,159.6c0-10.7-2.7-20.8-7.4-29.7c-0.3,0.1-0.6,0.1-1,0.1c-2.3,0-4.2-1.9-4.2-4.3c0-1,0.4-2,1-2.7    c-3.1-4.4-6.7-8.3-10.7-11.8c-0.5,0.3-1.2,0.4-1.8,0.4c-2.4,0-4.3-1.9-4.3-4.3c0-0.2,0-0.5,0.1-0.7c-4.9-3.3-10.2-5.9-15.9-7.7    c-0.8,0.8-1.8,1.2-3,1.2c-1.9,0-3.6-1.3-4.1-3.1c-4-0.8-8.1-1.2-12.3-1.2c-3.8,0-7.5,0.3-11,1c-0.4,1.9-2.1,3.3-4.1,3.3    c-1.3,0-2.5-0.6-3.3-1.5c-6,1.8-11.7,4.5-16.8,8c0,0.2,0.1,0.5,0.1,0.7c0,2.3-1.9,4.3-4.2,4.3c-0.7,0-1.3-0.2-1.8-0.4    c-1.3,1.1-2.5,2.2-3.7,3.4c-2.6,2.6-4.9,5.4-7.1,8.4c0.6,0.7,1,1.7,1,2.7c0,2.4-1.9,4.3-4.2,4.3c-0.3,0-0.6,0-1-0.1    c-4.7,8.9-7.4,19-7.4,29.7v49h127.2V159.6z M200.7,203.3c-2.4,0-4.3-1.9-4.3-4.3c0-2.4,1.9-4.3,4.3-4.3c2.4,0,4.3,1.9,4.3,4.3    C205,201.4,203.1,203.3,200.7,203.3z M200.7,185c-2.4,0-4.3-1.9-4.3-4.3c0-2.4,1.9-4.3,4.3-4.3c2.4,0,4.3,1.9,4.3,4.3    C205,183.1,203.1,185,200.7,185z M200.7,166.7c-2.4,0-4.3-1.9-4.3-4.3c0-2.4,1.9-4.3,4.3-4.3c2.4,0,4.3,1.9,4.3,4.3    C205,164.8,203.1,166.7,200.7,166.7z M200.7,148.3c-2.4,0-4.3-1.9-4.3-4.3c0-2.4,1.9-4.3,4.3-4.3c2.4,0,4.3,1.9,4.3,4.3    C205,146.4,203.1,148.3,200.7,148.3z M216.5,203.3c-2.3,0-4.3-1.9-4.3-4.3c0-2.4,1.9-4.3,4.3-4.3c2.4,0,4.3,1.9,4.3,4.3    C220.8,201.4,218.9,203.3,216.5,203.3z M216.5,185c-2.3,0-4.3-1.9-4.3-4.3c0-2.4,1.9-4.3,4.3-4.3c2.4,0,4.3,1.9,4.3,4.3    C220.8,183.1,218.9,185,216.5,185z M216.5,166.7c-2.3,0-4.3-1.9-4.3-4.3c0-2.4,1.9-4.3,4.3-4.3c2.4,0,4.3,1.9,4.3,4.3    C220.8,164.8,218.9,166.7,216.5,166.7z M216.5,148.3c-2.3,0-4.3-1.9-4.3-4.3c0-2.4,1.9-4.3,4.3-4.3c2.4,0,4.3,1.9,4.3,4.3    C220.8,146.4,218.9,148.3,216.5,148.3z M216.5,130c-2.3,0-4.3-1.9-4.3-4.3c0-2.4,1.9-4.3,4.3-4.3c2.4,0,4.3,1.9,4.3,4.3    C220.8,128.1,218.9,130,216.5,130z M232.3,203.3c-2.4,0-4.3-1.9-4.3-4.3c0-2.4,1.9-4.3,4.3-4.3c2.3,0,4.3,1.9,4.3,4.3    C236.6,201.4,234.7,203.3,232.3,203.3z M232.3,185c-2.4,0-4.3-1.9-4.3-4.3c0-2.4,1.9-4.3,4.3-4.3c2.3,0,4.3,1.9,4.3,4.3    C236.6,183.1,234.7,185,232.3,185z M232.3,166.7c-2.4,0-4.3-1.9-4.3-4.3c0-2.4,1.9-4.3,4.3-4.3c2.3,0,4.3,1.9,4.3,4.3    C236.6,164.8,234.7,166.7,232.3,166.7z M232.3,148.3c-2.4,0-4.3-1.9-4.3-4.3c0-2.4,1.9-4.3,4.3-4.3c2.3,0,4.3,1.9,4.3,4.3    C236.6,146.4,234.7,148.3,232.3,148.3z M232.3,130c-2.4,0-4.3-1.9-4.3-4.3c0-2.4,1.9-4.3,4.3-4.3c2.3,0,4.3,1.9,4.3,4.3    C236.6,128.1,234.7,130,232.3,130z M232.3,111.7c-2.4,0-4.3-1.9-4.3-4.3c0-2.3,1.9-4.3,4.3-4.3c2.3,0,4.3,1.9,4.3,4.3    C236.6,109.8,234.7,111.7,232.3,111.7z M248.1,203.3c-2.3,0-4.3-1.9-4.3-4.3c0-2.4,1.9-4.3,4.3-4.3c2.4,0,4.3,1.9,4.3,4.3    C252.4,201.4,250.5,203.3,248.1,203.3z M248.1,185c-2.3,0-4.3-1.9-4.3-4.3c0-2.4,1.9-4.3,4.3-4.3c2.4,0,4.3,1.9,4.3,4.3    C252.4,183.1,250.5,185,248.1,185z M248.1,166.7c-2.3,0-4.3-1.9-4.3-4.3c0-2.4,1.9-4.3,4.3-4.3c2.4,0,4.3,1.9,4.3,4.3    C252.4,164.8,250.5,166.7,248.1,166.7z M248.1,148.3c-2.3,0-4.3-1.9-4.3-4.3c0-2.4,1.9-4.3,4.3-4.3c2.4,0,4.3,1.9,4.3,4.3    C252.4,146.4,250.5,148.3,248.1,148.3z M248.1,130c-2.3,0-4.3-1.9-4.3-4.3c0-2.4,1.9-4.3,4.3-4.3c2.4,0,4.3,1.9,4.3,4.3    C252.4,128.1,250.5,130,248.1,130z M248.1,111.7c-2.3,0-4.3-1.9-4.3-4.3c0-2.3,1.9-4.3,4.3-4.3c2.4,0,4.3,1.9,4.3,4.3    C252.4,109.8,250.5,111.7,248.1,111.7z M263.9,203.3c-2.3,0-4.3-1.9-4.3-4.3c0-2.4,1.9-4.3,4.3-4.3c2.4,0,4.3,1.9,4.3,4.3    C268.2,201.4,266.2,203.3,263.9,203.3z M263.9,185c-2.3,0-4.3-1.9-4.3-4.3c0-2.4,1.9-4.3,4.3-4.3c2.4,0,4.3,1.9,4.3,4.3    C268.2,183.1,266.2,185,263.9,185z M263.9,166.7c-2.3,0-4.3-1.9-4.3-4.3c0-2.4,1.9-4.3,4.3-4.3c2.4,0,4.3,1.9,4.3,4.3    C268.2,164.8,266.2,166.7,263.9,166.7z M263.9,148.3c-2.3,0-4.3-1.9-4.3-4.3c0-2.4,1.9-4.3,4.3-4.3c2.4,0,4.3,1.9,4.3,4.3    C268.2,146.4,266.2,148.3,263.9,148.3z M263.9,130c-2.3,0-4.3-1.9-4.3-4.3c0-2.4,1.9-4.3,4.3-4.3c2.4,0,4.3,1.9,4.3,4.3    C268.2,128.1,266.2,130,263.9,130z M263.9,111.7c-2.3,0-4.3-1.9-4.3-4.3c0-2.3,1.9-4.3,4.3-4.3c2.4,0,4.3,1.9,4.3,4.3    C268.2,109.8,266.2,111.7,263.9,111.7z M279.7,203.3c-2.4,0-4.3-1.9-4.3-4.3c0-2.4,1.9-4.3,4.3-4.3s4.3,1.9,4.3,4.3    C284,201.4,282,203.3,279.7,203.3z M279.7,185c-2.4,0-4.3-1.9-4.3-4.3c0-2.4,1.9-4.3,4.3-4.3s4.3,1.9,4.3,4.3    C284,183.1,282,185,279.7,185z M279.7,166.7c-2.4,0-4.3-1.9-4.3-4.3c0-2.4,1.9-4.3,4.3-4.3s4.3,1.9,4.3,4.3    C284,164.8,282,166.7,279.7,166.7z M279.7,148.3c-2.4,0-4.3-1.9-4.3-4.3c0-2.4,1.9-4.3,4.3-4.3s4.3,1.9,4.3,4.3    C284,146.4,282,148.3,279.7,148.3z M279.7,130c-2.4,0-4.3-1.9-4.3-4.3c0-2.4,1.9-4.3,4.3-4.3s4.3,1.9,4.3,4.3    C284,128.1,282,130,279.7,130z M279.7,111.7c-2.4,0-4.3-1.9-4.3-4.3c0-2.3,1.9-4.3,4.3-4.3s4.3,1.9,4.3,4.3    C284,109.8,282,111.7,279.7,111.7z M295.5,203.3c-2.4,0-4.3-1.9-4.3-4.3c0-2.4,1.9-4.3,4.3-4.3c2.3,0,4.3,1.9,4.3,4.3    C299.7,201.4,297.8,203.3,295.5,203.3z M295.5,185c-2.4,0-4.3-1.9-4.3-4.3c0-2.4,1.9-4.3,4.3-4.3c2.3,0,4.3,1.9,4.3,4.3    C299.7,183.1,297.8,185,295.5,185z M295.5,166.7c-2.4,0-4.3-1.9-4.3-4.3c0-2.4,1.9-4.3,4.3-4.3c2.3,0,4.3,1.9,4.3,4.3    C299.7,164.8,297.8,166.7,295.5,166.7z M295.5,148.3c-2.4,0-4.3-1.9-4.3-4.3c0-2.4,1.9-4.3,4.3-4.3c2.3,0,4.3,1.9,4.3,4.3    C299.7,146.4,297.8,148.3,295.5,148.3z M295.5,130c-2.4,0-4.3-1.9-4.3-4.3c0-2.4,1.9-4.3,4.3-4.3c2.3,0,4.3,1.9,4.3,4.3    C299.7,128.1,297.8,130,295.5,130z M311.3,203.3c-2.4,0-4.3-1.9-4.3-4.3c0-2.4,1.9-4.3,4.3-4.3s4.3,1.9,4.3,4.3    C315.5,201.4,313.6,203.3,311.3,203.3z M311.3,185c-2.4,0-4.3-1.9-4.3-4.3c0-2.4,1.9-4.3,4.3-4.3s4.3,1.9,4.3,4.3    C315.5,183.1,313.6,185,311.3,185z M311.3,166.7c-2.4,0-4.3-1.9-4.3-4.3c0-2.4,1.9-4.3,4.3-4.3s4.3,1.9,4.3,4.3    C315.5,164.8,313.6,166.7,311.3,166.7z M311.3,148.3c-2.4,0-4.3-1.9-4.3-4.3c0-2.4,1.9-4.3,4.3-4.3s4.3,1.9,4.3,4.3    C315.5,146.4,313.6,148.3,311.3,148.3z"/></g></g></svg>